<svg width="1056" height="222" viewBox="0 0 1056 222" fill="none" xmlns="http://www.w3.org/2000/svg">
<g opacity="0.6" clip-path="url(#clip0_65_165)">
<path d="M0 200.61L7.69377 196.98C8.96734 196.387 10.1886 195.986 11.3749 195.794C12.5438 195.602 13.6429 195.602 14.6548 195.812C15.6667 196.021 16.5564 196.422 17.3241 197.033C18.0917 197.643 18.7372 198.481 19.2257 199.51C19.784 200.714 20.0457 201.848 19.9933 202.93C19.941 204.012 19.6618 205.024 19.1385 205.966C18.6151 206.908 17.8823 207.78 16.9228 208.566C15.9633 209.351 14.8641 210.031 13.608 210.624L10.7643 211.968L14.5152 219.906L10.1188 221.983L0 200.61ZM9.22903 208.757L11.2528 207.798C11.9681 207.449 12.6136 207.082 13.1893 206.681C13.765 206.28 14.2186 205.826 14.5676 205.338C14.9165 204.849 15.1084 204.308 15.1607 203.733C15.2131 203.157 15.0735 202.529 14.7595 201.848C14.4629 201.238 14.0965 200.767 13.6604 200.435C13.2242 200.104 12.7183 199.894 12.16 199.824C11.6017 199.737 11.026 199.755 10.3979 199.894C9.78731 200.016 9.17669 200.226 8.56608 200.505L5.9317 201.744L9.22903 208.757Z" fill="#333333"/>
<path d="M30.1994 186.303C31.8044 185.587 33.392 185.186 34.9796 185.081C36.5672 184.977 38.0501 185.169 39.4633 185.692C40.8764 186.198 42.15 187.036 43.3363 188.17C44.5227 189.304 45.4997 190.787 46.2847 192.584C47.0698 194.346 47.4711 196.038 47.506 197.661C47.5409 199.284 47.2617 200.802 46.6686 202.197C46.0754 203.593 45.2031 204.849 44.0516 205.966C42.9002 207.083 41.5219 207.99 39.9169 208.688C38.3118 209.386 36.7242 209.822 35.1366 209.926C33.5665 210.049 32.0661 209.857 30.6704 209.351C29.2747 208.845 27.9837 208.025 26.8148 206.891C25.6459 205.757 24.6515 204.274 23.8664 202.476C23.0813 200.714 22.6801 199.022 22.6452 197.382C22.6103 195.742 22.872 194.224 23.4651 192.811C24.0583 191.397 24.9132 190.141 26.0646 189.025C27.2161 187.925 28.5943 187.018 30.1994 186.303ZM28.6118 200.383C29.2049 201.726 29.8853 202.825 30.6704 203.663C31.438 204.5 32.2755 205.111 33.1652 205.495C34.055 205.879 34.9622 206.071 35.8868 206.036C36.8115 206.001 37.7361 205.791 38.6433 205.39C39.5505 204.989 40.3181 204.465 40.9462 203.802C41.5917 203.139 42.0453 202.354 42.3245 201.447C42.6036 200.54 42.6908 199.528 42.5861 198.394C42.4815 197.26 42.1325 196.021 41.5394 194.678C40.9288 193.299 40.2309 192.183 39.4458 191.328C38.6608 190.473 37.8233 189.845 36.9336 189.461C36.0438 189.077 35.1366 188.902 34.212 188.937C33.2873 188.972 32.3627 189.199 31.4729 189.6C30.5832 190.002 29.7981 190.542 29.17 191.205C28.542 191.886 28.0709 192.671 27.7918 193.578C27.5126 194.486 27.4254 195.515 27.5475 196.667C27.6697 197.818 28.0186 199.057 28.6118 200.383Z" fill="#333333"/>
<path d="M46.1801 179.778L54.5717 176.34C55.8452 175.817 57.049 175.538 58.1481 175.485C59.2472 175.433 60.2591 175.59 61.1489 175.922C62.0561 176.253 62.8237 176.759 63.4867 177.44C64.1496 178.12 64.673 178.923 65.0568 179.882C65.4232 180.755 65.5977 181.592 65.5802 182.377C65.5802 183.162 65.4581 183.913 65.2138 184.593C64.9696 185.273 64.6556 185.902 64.2543 186.46C63.853 187.018 63.4343 187.507 62.9982 187.925L72.5587 194.521L67.4295 196.614L59.2298 190.368L56.1593 191.624L59.5264 199.859L55.1299 201.656L46.1801 179.778ZM54.8159 188.344L57.0665 187.419C58.4622 186.844 59.5089 186.093 60.2068 185.186C60.8872 184.261 60.9744 183.18 60.451 181.906C59.98 180.755 59.2472 180.022 58.2877 179.708C57.3107 179.411 56.1244 179.533 54.7287 180.109L51.9198 181.261L54.8159 188.344Z" fill="#333333"/>
<path d="M82.974 165.296L84.2825 168.733L77.3738 171.35L84.457 190.019L79.9035 191.746L72.8204 173.078L66.1036 175.625L64.7951 172.188L82.974 165.296Z" fill="#333333"/>
<path d="M101.17 158.928L102.357 162.33L92.2555 165.854L94.4711 172.205L103.735 168.978L104.904 172.345L95.64 175.573L98.8501 184.785L94.2443 186.39L86.4633 164.075L101.17 158.928Z" fill="#333333"/>
<path d="M115.982 153.816C117.657 153.292 119.297 153.083 120.867 153.153C122.437 153.223 123.903 153.606 125.246 154.269C126.59 154.95 127.758 155.909 128.805 157.183C129.835 158.457 130.637 160.027 131.23 161.911C131.806 163.761 131.998 165.488 131.858 167.093C131.701 168.716 131.248 170.181 130.497 171.507C129.747 172.833 128.735 173.967 127.462 174.945C126.188 175.922 124.705 176.654 123.031 177.178C121.356 177.701 119.716 177.928 118.146 177.858C116.575 177.788 115.11 177.439 113.784 176.776C112.458 176.113 111.272 175.154 110.242 173.88C109.213 172.607 108.411 171.036 107.817 169.152C107.242 167.32 107.032 165.575 107.189 163.953C107.346 162.33 107.783 160.847 108.533 159.504C109.283 158.178 110.295 157.026 111.568 156.049C112.825 155.072 114.307 154.339 115.982 153.816ZM112.772 167.617C113.208 169.03 113.767 170.199 114.43 171.106C115.11 172.031 115.86 172.729 116.698 173.217C117.535 173.706 118.407 173.985 119.349 174.072C120.274 174.159 121.216 174.037 122.158 173.758C123.1 173.461 123.92 173.025 124.636 172.45C125.351 171.856 125.892 171.141 126.276 170.269C126.659 169.396 126.869 168.402 126.886 167.268C126.904 166.134 126.712 164.86 126.276 163.447C125.839 162.016 125.264 160.83 124.583 159.887C123.903 158.945 123.153 158.23 122.315 157.741C121.478 157.253 120.605 156.974 119.681 156.904C118.756 156.834 117.814 156.956 116.889 157.235C115.947 157.532 115.127 157.968 114.412 158.561C113.697 159.155 113.156 159.887 112.772 160.76C112.388 161.632 112.179 162.644 112.162 163.796C112.144 164.947 112.336 166.221 112.772 167.617Z" fill="#333333"/>
<path d="M132.835 149.227L137.546 147.988L142.657 167.285L152.654 164.633L153.596 168.192L138.889 172.083L132.835 149.227Z" fill="#333333"/>
<path d="M156.021 143.4L161.395 166.43L156.649 167.529L151.276 144.499L156.021 143.4Z" fill="#333333"/>
<path d="M173.223 139.439C174.95 139.108 176.59 139.09 178.16 139.334C179.731 139.596 181.126 140.137 182.382 140.957C183.639 141.777 184.703 142.876 185.575 144.255C186.447 145.633 187.075 147.29 187.442 149.227C187.791 151.129 187.808 152.856 187.459 154.461C187.128 156.049 186.5 157.462 185.61 158.684C184.72 159.905 183.586 160.934 182.208 161.737C180.83 162.557 179.277 163.133 177.55 163.447C175.823 163.778 174.183 163.813 172.613 163.569C171.042 163.325 169.647 162.801 168.391 161.999C167.134 161.196 166.07 160.097 165.198 158.718C164.326 157.34 163.698 155.683 163.331 153.746C162.982 151.862 162.965 150.099 163.296 148.494C163.628 146.889 164.238 145.476 165.146 144.237C166.053 142.998 167.169 141.969 168.548 141.149C169.943 140.329 171.496 139.771 173.223 139.439ZM168.443 152.786C168.722 154.234 169.141 155.456 169.699 156.45C170.257 157.445 170.938 158.23 171.705 158.806C172.473 159.381 173.328 159.765 174.235 159.957C175.142 160.149 176.084 160.149 177.061 159.957C178.021 159.783 178.893 159.434 179.678 158.928C180.446 158.422 181.074 157.776 181.562 156.956C182.051 156.136 182.365 155.177 182.522 154.043C182.679 152.908 182.627 151.635 182.348 150.187C182.068 148.704 181.65 147.465 181.074 146.453C180.498 145.441 179.835 144.638 179.068 144.063C178.3 143.487 177.445 143.103 176.538 142.929C175.631 142.754 174.689 142.754 173.712 142.946C172.752 143.121 171.88 143.469 171.112 143.993C170.345 144.499 169.717 145.179 169.228 145.982C168.74 146.802 168.425 147.779 168.286 148.931C168.146 150.082 168.181 151.356 168.443 152.786Z" fill="#333333"/>
<path d="M208.395 145.877L208.761 149.384L200.02 150.309L199.654 146.802L208.395 145.877Z" fill="#333333"/>
<path d="M222.038 133.804L226.905 133.786L226.975 147.936C226.992 150.117 227.428 151.705 228.301 152.717C229.173 153.729 230.569 154.217 232.488 154.217C234.372 154.217 235.75 153.659 236.588 152.56C237.425 151.46 237.861 150.065 237.844 148.337L237.774 133.734L242.642 133.716L242.711 148.023C242.729 151.303 241.856 153.746 240.112 155.351C238.367 156.956 235.82 157.776 232.505 157.794C230.883 157.794 229.435 157.619 228.144 157.235C226.87 156.852 225.771 156.258 224.881 155.456C223.992 154.653 223.294 153.624 222.823 152.368C222.352 151.111 222.107 149.646 222.107 147.936L222.038 133.804Z" fill="#333333"/>
<path d="M252.917 134.449L257.506 143.592L263.978 135.653L269.491 136.246L260.105 146.942L267.345 159.8L261.623 159.19L256.633 149.663L249.847 157.916L244.369 157.323L253.877 146.261L247.265 133.856L252.917 134.449Z" fill="#333333"/>
<path d="M266.211 163.691L283.099 136.386L286.414 137.119L269.526 164.424L266.211 163.691Z" fill="#333333"/>
<path d="M290.706 141.027L295.277 142.702L290.392 155.979C289.642 158.021 289.502 159.661 289.956 160.917C290.409 162.173 291.543 163.115 293.34 163.778C295.12 164.424 296.585 164.389 297.754 163.673C298.923 162.941 299.813 161.772 300.406 160.149L305.448 146.453L310.019 148.128L305.081 161.545C303.947 164.616 302.29 166.605 300.074 167.512C297.859 168.419 295.207 168.28 292.084 167.128C290.566 166.57 289.275 165.889 288.193 165.087C287.129 164.284 286.309 163.342 285.768 162.278C285.21 161.213 284.931 160.01 284.931 158.666C284.931 157.323 285.21 155.875 285.803 154.269L290.706 141.027Z" fill="#333333"/>
<path d="M321.167 154.043L310.525 175.154L306.181 172.956L316.823 151.844L321.167 154.043Z" fill="#333333"/>
<path d="M341.806 163.237C343.568 163.918 345.103 164.755 346.394 165.75C347.685 166.762 348.697 167.896 349.412 169.187C350.127 170.478 350.529 171.891 350.616 173.444C350.703 174.979 350.407 176.637 349.726 178.382C348.941 180.423 347.929 182.028 346.673 183.232C345.417 184.418 344.021 185.256 342.469 185.727C340.916 186.198 339.276 186.338 337.531 186.163C335.787 185.989 334.025 185.57 332.228 184.89L325.336 182.255L333.78 160.167L341.806 163.237ZM331.181 180.632L333.187 181.4C334.286 181.819 335.385 182.098 336.519 182.255C337.653 182.412 338.718 182.325 339.747 182.028C340.776 181.732 341.736 181.138 342.626 180.266C343.515 179.394 344.265 178.155 344.876 176.55C345.766 174.212 345.748 172.153 344.824 170.373C343.899 168.594 342.242 167.25 339.852 166.343L337.06 165.279L331.181 180.632Z" fill="#333333"/>
<path d="M357.472 168.838L372.842 173.182L371.865 176.654L361.188 173.636L359.566 179.376L369.249 182.115L368.272 185.553L358.589 182.813L356.705 189.461L367.504 192.514L366.527 195.986L351.052 191.607L357.472 168.838Z" fill="#333333"/>
<path d="M384.339 175.259C385.805 175.555 387.096 175.957 388.23 176.462C389.364 176.968 390.376 177.544 391.266 178.207L389.469 181.435C388.492 180.72 387.55 180.144 386.642 179.708C385.735 179.272 384.793 178.94 383.868 178.766C382.542 178.486 381.443 178.539 380.606 178.905C379.751 179.272 379.245 179.882 379.071 180.772C378.896 181.627 379.071 182.342 379.594 182.935C380.117 183.511 381.007 184.157 382.281 184.837L384.514 186.059C386.416 187.105 387.794 188.309 388.631 189.653C389.469 190.996 389.73 192.444 389.416 193.98C389.207 194.992 388.806 195.864 388.23 196.614C387.637 197.364 386.887 197.975 385.979 198.429C385.072 198.882 384.008 199.179 382.804 199.301C381.6 199.406 380.274 199.319 378.844 199.022C377.431 198.725 376.087 198.324 374.814 197.801C373.54 197.277 372.336 196.597 371.237 195.777L373.034 192.584C374.046 193.334 375.058 193.945 376.087 194.433C377.117 194.922 378.198 195.288 379.367 195.532C380.78 195.829 381.932 195.794 382.822 195.428C383.729 195.079 384.27 194.416 384.479 193.421C384.549 193.072 384.549 192.741 384.479 192.392C384.409 192.043 384.252 191.694 383.973 191.345C383.711 190.996 383.31 190.63 382.804 190.263C382.298 189.897 381.618 189.478 380.798 189.025L378.757 187.873C377.082 186.913 375.791 185.849 374.918 184.663C374.029 183.476 373.767 181.993 374.133 180.231C374.552 178.19 375.634 176.707 377.413 175.765C379.158 174.84 381.478 174.665 384.339 175.259Z" fill="#333333"/>
<path d="M401.681 178.626L398.192 202.005L393.377 201.29L396.866 177.911L401.681 178.626Z" fill="#333333"/>
<path d="M418.639 180.144C420.156 180.283 421.5 180.51 422.686 180.842C423.872 181.173 424.937 181.609 425.879 182.15L424.553 185.273C423.663 184.767 422.738 184.366 421.779 184.104C420.819 183.825 419.825 183.651 418.83 183.546C417.714 183.441 416.65 183.511 415.62 183.738C414.591 183.965 413.684 184.418 412.864 185.047C412.044 185.675 411.364 186.547 410.823 187.611C410.282 188.676 409.95 190.019 409.793 191.607C409.532 194.416 410.003 196.632 411.206 198.254C412.41 199.877 414.26 200.784 416.754 201.011C418.325 201.15 419.546 201.098 420.453 200.854L420.976 195.026L416.65 194.625L416.964 191.188L425.914 191.991L424.849 203.733C423.75 204.064 422.512 204.291 421.133 204.431C419.755 204.57 418.202 204.553 416.44 204.396C414.643 204.239 412.969 203.82 411.451 203.157C409.933 202.494 408.624 201.587 407.543 200.47C406.461 199.336 405.676 197.993 405.135 196.422C404.612 194.852 404.437 193.09 404.612 191.118C404.786 189.147 405.275 187.437 406.077 185.971C406.88 184.506 407.892 183.319 409.148 182.395C410.387 181.47 411.835 180.807 413.457 180.423C415.08 180.092 416.807 179.987 418.639 180.144Z" fill="#333333"/>
<path d="M431.287 181.487L435.684 181.54L445.122 194.939C445.645 195.689 446.134 196.44 446.57 197.19C447.006 197.94 447.372 198.551 447.634 199.022H447.721C447.582 197.295 447.512 195.567 447.547 193.823C447.582 192.078 447.582 190.351 447.599 188.623L447.669 181.679L452.257 181.732L451.996 205.373L447.599 205.32L438.597 192.654C437.986 191.799 437.428 190.909 436.887 189.967C436.347 189.042 435.945 188.274 435.649 187.699H435.561C435.666 189.548 435.718 191.345 435.718 193.09C435.718 194.835 435.701 196.597 435.684 198.394L435.614 205.181L431.025 205.128L431.287 181.487Z" fill="#333333"/>
<path d="M474.344 191.397L474.589 194.922L465.831 195.532L465.586 192.008L474.344 191.397Z" fill="#333333"/>
<path d="M497.635 177.195C499.135 176.968 500.496 176.881 501.735 176.934C502.973 176.986 504.108 177.143 505.137 177.457L504.579 180.807C503.602 180.528 502.607 180.353 501.595 180.318C500.601 180.283 499.589 180.336 498.595 180.475C497.495 180.632 496.466 180.964 495.524 181.418C494.582 181.889 493.797 182.534 493.151 183.337C492.506 184.139 492.052 185.151 491.773 186.32C491.511 187.489 491.494 188.868 491.721 190.438C492.139 193.229 493.116 195.271 494.669 196.562C496.222 197.853 498.228 198.307 500.705 197.94C502.258 197.713 503.445 197.364 504.265 196.911L503.41 191.118L499.1 191.764L498.595 188.344L507.475 187.018L509.202 198.673C508.207 199.249 507.056 199.772 505.765 200.226C504.474 200.679 502.939 201.046 501.211 201.307C499.414 201.569 497.705 201.569 496.065 201.273C494.425 200.993 492.942 200.418 491.633 199.58C490.325 198.743 489.226 197.626 488.354 196.213C487.464 194.817 486.888 193.142 486.592 191.188C486.295 189.234 486.365 187.454 486.801 185.849C487.237 184.244 487.952 182.831 488.947 181.644C489.941 180.44 491.18 179.463 492.663 178.713C494.163 177.98 495.821 177.474 497.635 177.195Z" fill="#333333"/>
<path d="M510.336 175.468L519.181 173.531C520.524 173.235 521.763 173.165 522.845 173.305C523.944 173.444 524.903 173.758 525.723 174.247C526.543 174.735 527.241 175.363 527.782 176.148C528.323 176.934 528.707 177.823 528.916 178.818C529.125 179.743 529.143 180.597 529.003 181.365C528.864 182.133 528.619 182.848 528.27 183.494C527.921 184.139 527.503 184.698 526.997 185.169C526.508 185.657 526.002 186.059 525.514 186.39L533.801 194.52L528.375 195.707L521.362 188.135L518.134 188.85L520.036 197.539L515.395 198.551L510.336 175.468ZM517.367 185.361L519.739 184.837C521.222 184.506 522.374 183.965 523.211 183.18C524.048 182.395 524.31 181.33 524.014 179.987C523.752 178.766 523.159 177.928 522.251 177.457C521.344 176.986 520.158 176.916 518.675 177.248L515.709 177.893L517.367 185.361Z" fill="#333333"/>
<path d="M538.372 168.663L543.047 167.285L558.888 187.262L553.951 188.711L550.165 183.755L541.163 186.407L540.657 192.619L535.79 194.049L538.372 168.663ZM541.303 182.831L548.002 180.859L545.751 177.876C545.089 176.968 544.478 176.131 543.902 175.328C543.326 174.543 542.716 173.653 542.07 172.694L541.983 172.729C541.913 173.81 541.844 174.875 541.791 175.887C541.739 176.916 541.652 177.98 541.582 179.097L541.303 182.831Z" fill="#333333"/>
<path d="M554.649 163.621L562.587 160.603C563.913 160.097 565.152 159.8 566.338 159.696C567.524 159.591 568.606 159.678 569.6 159.957C570.595 160.236 571.45 160.707 572.165 161.388C572.88 162.068 573.456 162.941 573.875 164.005C574.346 165.244 574.52 166.395 574.381 167.46C574.241 168.524 573.875 169.518 573.282 170.426C572.688 171.333 571.886 172.135 570.874 172.851C569.862 173.566 568.711 174.159 567.42 174.648L564.471 175.765L567.594 183.965L563.041 185.692L554.649 163.621ZM563.215 172.45L565.309 171.647C566.059 171.368 566.722 171.036 567.332 170.67C567.943 170.304 568.432 169.885 568.798 169.431C569.164 168.978 569.409 168.454 569.513 167.878C569.6 167.303 569.531 166.674 569.252 165.977C569.007 165.348 568.676 164.843 568.257 164.494C567.838 164.127 567.35 163.883 566.809 163.761C566.268 163.639 565.675 163.604 565.047 163.691C564.419 163.761 563.791 163.918 563.18 164.162L560.459 165.191L563.215 172.45Z" fill="#333333"/>
<path d="M584.761 177.23L574.363 155.997L578.742 153.851L582.947 162.452L592.228 157.916L588.024 149.314L592.403 147.168L602.801 168.402L598.422 170.548L593.851 161.213L584.569 165.75L589.14 175.084L584.761 177.23Z" fill="#333333"/>
<path d="M600.951 141.934L613.129 162.19L608.959 164.703L596.782 144.447L600.951 141.934Z" fill="#333333"/>
<path d="M627.121 148.617C628.115 147.866 628.9 147.151 629.458 146.488C630.017 145.825 630.47 145.144 630.819 144.447L633.715 146.593C633.331 147.325 632.756 148.128 631.988 149.018C631.22 149.908 630.174 150.832 628.848 151.827C627.4 152.909 625.882 153.694 624.312 154.182C622.742 154.671 621.189 154.845 619.654 154.688C618.118 154.531 616.653 154.043 615.24 153.205C613.827 152.368 612.536 151.181 611.384 149.646C610.268 148.145 609.5 146.61 609.081 145.022C608.662 143.452 608.593 141.899 608.872 140.381C609.151 138.863 609.744 137.415 610.669 136.02C611.593 134.624 612.815 133.368 614.35 132.216C615.711 131.204 616.915 130.471 617.961 130.035C619.008 129.599 619.933 129.302 620.788 129.145L621.956 132.582C621.084 132.757 620.264 133.001 619.462 133.315C618.659 133.629 617.839 134.118 616.949 134.763C616.06 135.426 615.309 136.194 614.681 137.031C614.071 137.886 613.67 138.794 613.495 139.788C613.321 140.783 613.39 141.847 613.687 142.981C613.984 144.115 614.594 145.302 615.536 146.54C616.426 147.744 617.386 148.651 618.38 149.262C619.374 149.873 620.369 150.257 621.363 150.379C622.358 150.518 623.335 150.414 624.312 150.1C625.289 149.785 626.213 149.28 627.121 148.617Z" fill="#333333"/>
<path d="M632.756 113.722C633.837 112.169 635.006 110.878 636.297 109.866C637.588 108.854 638.931 108.139 640.362 107.755C641.793 107.371 643.258 107.319 644.776 107.615C646.294 107.912 647.829 108.592 649.364 109.657C651.144 110.895 652.47 112.274 653.342 113.774C654.197 115.275 654.668 116.827 654.755 118.45C654.842 120.055 654.598 121.695 654.005 123.353C653.429 125.01 652.592 126.615 651.493 128.186L647.288 134.257L627.853 120.788L632.756 113.722ZM647.114 128.186L648.335 126.406C648.998 125.446 649.539 124.434 649.957 123.37C650.376 122.306 650.551 121.242 650.498 120.177C650.446 119.113 650.114 118.031 649.486 116.967C648.858 115.903 647.829 114.873 646.416 113.896C644.357 112.466 642.351 111.995 640.414 112.483C638.46 112.972 636.768 114.245 635.32 116.356L633.61 118.816L647.114 128.186Z" fill="#333333"/>
<path d="M644.497 97.9843L655.209 86.1376L657.878 88.5453L650.446 96.7805L654.877 100.776L661.629 93.3084L664.281 95.6987L657.547 103.166L662.676 107.79L670.195 99.4673L672.864 101.875L662.083 113.809L644.497 97.9843Z" fill="#333333"/>
<path d="M664.996 76.3322C666.095 75.3202 667.177 74.5002 668.241 73.8721C669.305 73.244 670.387 72.7729 671.451 72.424L673.021 75.7738C671.887 76.1402 670.858 76.5764 669.968 77.0475C669.079 77.536 668.276 78.0943 667.561 78.7399C666.566 79.6646 665.956 80.5719 665.764 81.4617C665.554 82.3689 665.764 83.1366 666.374 83.7996C666.968 84.4452 667.648 84.7243 668.416 84.6371C669.183 84.5499 670.23 84.2009 671.539 83.5728L673.841 82.4736C675.813 81.5489 677.592 81.1476 679.163 81.2523C680.75 81.357 682.076 82.0025 683.14 83.1541C683.838 83.9043 684.309 84.7418 684.571 85.6665C684.833 86.5737 684.885 87.5508 684.728 88.5453C684.571 89.5572 684.187 90.5866 683.576 91.616C682.966 92.6629 682.111 93.6748 681.029 94.6693C679.965 95.6464 678.848 96.4838 677.68 97.2166C676.511 97.9494 675.255 98.5252 673.946 98.9439L672.411 95.6115C673.615 95.2276 674.696 94.7565 675.691 94.2331C676.685 93.6923 677.61 93.0293 678.5 92.2092C679.564 91.2322 680.209 90.29 680.454 89.3479C680.698 88.4057 680.471 87.5682 679.791 86.8355C679.546 86.5737 679.285 86.3818 678.953 86.2248C678.639 86.0678 678.255 86.0154 677.819 86.0154C677.383 86.0329 676.86 86.1376 676.266 86.3295C675.673 86.5214 674.941 86.818 674.086 87.2367L671.957 88.2312C670.195 89.0338 668.573 89.4351 667.09 89.47C665.607 89.5049 664.263 88.8419 663.042 87.5159C661.629 85.9805 661.071 84.2358 661.35 82.2468C661.629 80.2927 662.85 78.3212 664.996 76.3322Z" fill="#333333"/>
<path d="M679.825 64.1539L694.707 82.526L690.921 85.5967L676.04 67.2247L679.825 64.1539Z" fill="#333333"/>
<path d="M694.533 52.7433C695.771 51.8709 696.958 51.173 698.074 50.6671C699.191 50.1611 700.29 49.7947 701.354 49.6028L702.366 52.8305C701.354 53.0225 700.394 53.3191 699.487 53.7378C698.58 54.1565 697.708 54.6451 696.888 55.2383C695.981 55.8838 695.213 56.6341 694.567 57.4715C693.939 58.309 693.521 59.2512 693.311 60.2631C693.102 61.2751 693.137 62.3742 693.433 63.5432C693.713 64.7122 694.323 65.9509 695.248 67.242C696.888 69.5451 698.667 70.9234 700.639 71.3771C702.593 71.8307 704.599 71.3247 706.64 69.894C707.931 68.9868 708.821 68.1493 709.362 67.3816L705.977 62.6011L702.418 65.1135L700.429 62.287L707.774 57.1051L714.578 66.7361C713.95 67.6957 713.165 68.6727 712.206 69.6672C711.246 70.6617 710.06 71.6737 708.612 72.6856C707.129 73.7325 705.593 74.5001 704.006 74.9712C702.401 75.4597 700.831 75.6168 699.295 75.4597C697.76 75.3027 696.26 74.7967 694.847 73.9418C693.433 73.0869 692.16 71.8481 691.008 70.243C689.874 68.6204 689.124 67.0152 688.793 65.3752C688.461 63.7526 688.461 62.1649 688.81 60.6644C689.159 59.1639 689.822 57.7158 690.816 56.3724C691.811 55.0289 693.05 53.7901 694.533 52.7433Z" fill="#333333"/>
<path d="M707.129 44.6827L710.932 42.5017L725.866 49.2364C726.703 49.6203 727.506 50.0216 728.256 50.4403C729.006 50.859 729.634 51.208 730.105 51.4871L730.175 51.4522C729.181 50.039 728.239 48.5734 727.366 47.073C726.494 45.5725 725.639 44.072 724.767 42.5715L721.313 36.5522L725.29 34.2666L737.084 54.7672L733.281 56.9481L719.097 50.6148C718.137 50.1786 717.195 49.7075 716.271 49.1666C715.328 48.6432 714.596 48.1896 714.055 47.8406L713.985 47.8755C715.032 49.4109 715.974 50.9288 716.864 52.4293C717.736 53.9298 718.626 55.4651 719.533 57.0179L722.918 62.8977L718.94 65.1833L707.129 44.6827Z" fill="#333333"/>
<path d="M751.25 34.0922L752.698 37.3025L744.69 40.8966L743.242 37.6863L751.25 34.0922Z" fill="#333333"/>
<path d="M760.514 18.4767L768.557 15.7201C769.883 15.2664 771.156 15.0047 772.343 14.9349C773.529 14.8651 774.611 15.0047 775.588 15.3013C776.565 15.6154 777.402 16.1214 778.117 16.8192C778.815 17.5171 779.356 18.407 779.74 19.5061C780.176 20.7623 780.298 21.9139 780.124 22.9782C779.949 24.0424 779.548 25.0195 778.937 25.9093C778.327 26.7991 777.489 27.5843 776.442 28.2473C775.396 28.9103 774.227 29.486 772.918 29.9222L769.935 30.9516L772.779 39.2565L768.173 40.8442L760.514 18.4767ZM768.784 27.5843L770.895 26.8515C771.645 26.5898 772.343 26.2932 772.953 25.9442C773.564 25.5953 774.07 25.2114 774.471 24.7578C774.872 24.3042 775.117 23.7982 775.239 23.2224C775.361 22.6467 775.291 22.0186 775.047 21.3032C774.837 20.6577 774.506 20.1517 774.105 19.7853C773.703 19.4015 773.215 19.1572 772.674 19.0002C772.133 18.8606 771.54 18.8082 770.93 18.8606C770.301 18.9129 769.673 19.0525 769.045 19.2619L766.289 20.204L768.784 27.5843Z" fill="#333333"/>
<path d="M782.566 11.2187L791.341 8.98539C792.685 8.63645 793.906 8.53176 795.005 8.63644C796.104 8.74113 797.081 9.02029 797.918 9.47392C798.756 9.92755 799.471 10.5382 800.029 11.3059C800.588 12.0736 801.006 12.9459 801.251 13.9404C801.477 14.8651 801.547 15.7201 801.425 16.4878C801.303 17.2729 801.094 17.9882 800.762 18.6338C800.431 19.2793 800.029 19.8551 799.558 20.3611C799.087 20.8496 798.599 21.2858 798.11 21.6347L806.659 29.486L801.286 30.8644L794.01 23.5365L790.8 24.3565L792.999 32.9755L788.393 34.1445L782.566 11.2187ZM789.946 20.867L792.301 20.2564C793.766 19.89 794.918 19.2793 795.72 18.4767C796.523 17.6567 796.767 16.5924 796.418 15.249C796.104 14.0451 795.493 13.2077 794.569 12.7715C793.644 12.3353 792.458 12.3004 790.975 12.6842L788.044 13.4345L789.946 20.867Z" fill="#333333"/>
<path d="M816.778 3.38476C818.505 3.1056 820.163 3.12305 821.715 3.41966C823.268 3.71626 824.664 4.29202 825.885 5.14694C827.106 6.00186 828.153 7.13594 828.99 8.53173C829.828 9.92752 830.403 11.6025 830.717 13.5566C831.014 15.4583 830.979 17.2031 830.595 18.7733C830.212 20.361 829.566 21.7394 828.624 22.9432C827.699 24.1471 826.53 25.1242 825.135 25.9093C823.739 26.6944 822.169 27.2178 820.442 27.497C818.714 27.7761 817.057 27.7761 815.504 27.4795C813.952 27.1829 812.556 26.6246 811.335 25.7872C810.114 24.9497 809.084 23.8156 808.229 22.4198C807.392 21.024 806.816 19.3491 806.502 17.395C806.206 15.4932 806.24 13.7485 806.624 12.1433C807.008 10.5382 807.654 9.14239 808.578 7.93852C809.503 6.73465 810.672 5.74015 812.068 4.95502C813.481 4.18734 815.051 3.64647 816.778 3.38476ZM811.649 16.575C811.876 18.0405 812.259 19.2618 812.8 20.2738C813.341 21.2857 813.987 22.0883 814.737 22.6815C815.487 23.2922 816.324 23.6935 817.232 23.9028C818.139 24.1122 819.081 24.1471 820.058 23.9901C821.035 23.833 821.907 23.519 822.692 23.0479C823.477 22.5768 824.123 21.9313 824.629 21.1287C825.135 20.3261 825.484 19.3665 825.658 18.2499C825.85 17.1333 825.815 15.8422 825.588 14.3766C825.344 12.8936 824.96 11.6374 824.419 10.608C823.879 9.57857 823.233 8.75854 822.483 8.16533C821.733 7.57212 820.895 7.17084 819.988 6.96147C819.081 6.76955 818.139 6.73465 817.162 6.89168C816.185 7.0487 815.313 7.36276 814.527 7.86873C813.742 8.3747 813.097 9.00281 812.591 9.80538C812.085 10.608 811.736 11.585 811.562 12.7191C811.387 13.8532 811.422 15.1443 811.649 16.575Z" fill="#333333"/>
<path d="M843.732 0.767709C845.617 0.663025 847.361 0.802604 848.949 1.169C850.536 1.55284 851.932 2.18094 853.118 3.07076C854.305 3.96057 855.247 5.0772 855.962 6.45554C856.677 7.83388 857.079 9.45649 857.183 11.3234C857.306 13.5043 857.044 15.3886 856.398 16.9937C855.753 18.5989 854.811 19.9249 853.589 20.9892C852.368 22.0535 850.938 22.856 849.28 23.4144C847.623 23.9727 845.843 24.3042 843.924 24.4263L836.545 24.8625L835.166 1.25623L843.732 0.767709ZM841.203 20.9892L843.349 20.867C844.517 20.7973 845.651 20.6053 846.733 20.2738C847.815 19.9423 848.774 19.4364 849.577 18.7385C850.397 18.0406 851.025 17.1159 851.479 15.9643C851.932 14.8128 852.107 13.3647 852.002 11.6549C851.862 9.15988 850.99 7.29302 849.42 6.05425C847.85 4.81549 845.774 4.27463 843.226 4.43165L840.243 4.60612L841.203 20.9892Z" fill="#333333"/>
<path d="M862.574 0L867.442 0.174473L866.936 14.3068C866.866 16.4877 867.232 18.0929 868.052 19.1397C868.872 20.1866 870.251 20.7449 872.17 20.8147C874.054 20.8845 875.449 20.3959 876.339 19.3317C877.229 18.2674 877.7 16.889 877.77 15.1617L878.293 0.575762L883.161 0.750236L882.637 15.0396C882.515 18.3197 881.556 20.7274 879.741 22.2628C877.927 23.7982 875.362 24.5135 872.03 24.3914C870.408 24.339 868.959 24.0948 867.703 23.6586C866.447 23.2224 865.383 22.5943 864.511 21.7394C863.656 20.9019 863.01 19.8376 862.592 18.564C862.173 17.2903 861.998 15.8073 862.051 14.1149L862.574 0Z" fill="#333333"/>
<path d="M899.63 23.1177C900.868 23.2748 901.933 23.2922 902.788 23.205C903.66 23.1177 904.462 22.9258 905.195 22.6641L905.806 26.2234C905.021 26.4851 904.044 26.6596 902.875 26.7642C901.706 26.8689 900.31 26.834 898.67 26.6247C896.873 26.3978 895.233 25.9268 893.768 25.194C892.285 24.4612 891.046 23.5016 890.052 22.3326C889.057 21.1636 888.342 19.7853 887.889 18.215C887.435 16.6448 887.33 14.8826 887.575 12.9808C887.801 11.114 888.307 9.47392 889.11 8.04324C889.895 6.61255 890.924 5.44358 892.18 4.53632C893.436 3.62906 894.867 3.00095 896.489 2.63456C898.112 2.26816 899.874 2.19837 901.776 2.42519C903.468 2.63456 904.829 2.93116 905.893 3.3499C906.94 3.75119 907.83 4.18737 908.545 4.65845L907.01 7.956C906.259 7.48492 905.492 7.08363 904.707 6.76958C903.922 6.43808 902.98 6.21126 901.898 6.08913C900.781 5.94955 899.717 5.98445 898.688 6.17637C897.658 6.36829 896.734 6.75213 895.931 7.34534C895.129 7.93855 894.431 8.74113 893.855 9.77052C893.279 10.7999 892.913 12.0736 892.721 13.6264C892.529 15.1094 892.599 16.4354 892.878 17.552C893.157 18.6687 893.628 19.6457 894.256 20.4308C894.885 21.216 895.652 21.8266 896.577 22.2628C897.501 22.6816 898.513 22.9782 899.63 23.1177Z" fill="#333333"/>
<path d="M930.527 7.88618L929.812 11.4978L922.572 10.0671L918.699 29.6605L913.918 28.7183L917.791 9.12494L910.743 7.72915L911.458 4.11755L930.527 7.88618Z" fill="#333333"/>
<path d="M952.003 13.731C953.748 14.2545 955.266 14.9698 956.574 15.8771C957.883 16.7843 958.912 17.8312 959.68 19.0525C960.447 20.2738 960.901 21.6521 961.058 23.1875C961.215 24.7229 961.023 26.3804 960.482 28.1774C959.854 30.2537 958.964 31.9461 957.813 33.2372C956.661 34.5283 955.37 35.453 953.905 36.0462C952.44 36.6394 950.869 36.9186 949.177 36.8837C947.485 36.8488 945.758 36.5696 943.996 36.0288L937.209 33.9525L944.118 11.3408L952.003 13.731ZM942.739 31.8588L944.728 32.4695C945.81 32.801 946.892 32.9929 947.991 33.0453C949.072 33.0976 950.119 32.9406 951.096 32.5567C952.073 32.1729 952.963 31.5099 953.765 30.5852C954.568 29.6605 955.231 28.3694 955.737 26.7119C956.47 24.3216 956.33 22.2802 955.336 20.5879C954.341 18.8955 952.666 17.6916 950.328 16.9763L947.572 16.1388L942.739 31.8588Z" fill="#333333"/>
<path d="M968.979 19.2618L983.319 24.7229L982.046 28.0902L972.067 24.3041L969.956 29.8873L978.993 33.3244L977.737 36.6394L968.699 33.2023L966.24 39.6578L976.323 43.4962L975.05 46.8635L960.587 41.3676L968.979 19.2618Z" fill="#333333"/>
<path d="M995.183 29.4511C996.491 30.0268 997.625 30.6898 998.585 31.3877C999.544 32.1031 1000.36 32.8708 1001.06 33.7082L998.654 36.4998C997.904 35.61 997.137 34.8598 996.386 34.2491C995.619 33.6384 994.816 33.1499 993.979 32.7661C992.793 32.2427 991.746 32.0682 990.874 32.2427C990.001 32.4346 989.373 32.9231 989.007 33.7606C988.658 34.5631 988.658 35.2959 989.007 35.9589C989.373 36.6219 990.071 37.4245 991.118 38.3492L992.95 39.9893C994.502 41.4025 995.532 42.8332 996.02 44.3162C996.509 45.7992 996.439 47.2474 995.793 48.6955C995.375 49.6377 994.799 50.4053 994.084 51.016C993.368 51.6266 992.531 52.0628 991.571 52.342C990.612 52.6211 989.548 52.6735 988.396 52.5514C987.227 52.4118 986.006 52.0628 984.732 51.4871C983.476 50.9288 982.29 50.2658 981.208 49.4806C980.127 48.7129 979.15 47.8231 978.277 46.7937L980.685 44.0371C981.47 44.9618 982.29 45.7643 983.145 46.4448C983.982 47.1252 984.942 47.701 985.989 48.1721C987.245 48.7304 988.344 48.9398 989.268 48.7653C990.193 48.6083 990.856 48.0674 991.275 47.1427C991.414 46.8286 991.502 46.4797 991.519 46.1307C991.536 45.7818 991.449 45.4154 991.275 45.0141C991.1 44.6128 990.821 44.1941 990.42 43.723C990.019 43.2519 989.478 42.7285 988.797 42.1178L987.123 40.5999C985.762 39.3263 984.785 38.0352 984.209 36.6917C983.633 35.3483 983.721 33.8653 984.453 32.2252C985.291 30.3234 986.652 29.1021 988.536 28.5438C990.42 27.9855 992.618 28.317 995.183 29.4511Z" fill="#333333"/>
<path d="M1011.37 37.5292L1000.91 58.7278L996.7 56.6515L1007.17 35.453L1011.37 37.5292Z" fill="#333333"/>
<path d="M1027.06 45.398C1028.33 46.0959 1029.43 46.8286 1030.34 47.5789C1031.24 48.3291 1032.01 49.1491 1032.62 49.9866L1030.2 52.342C1029.62 51.5394 1028.96 50.8241 1028.23 50.2134C1027.49 49.5853 1026.69 49.0445 1025.84 48.5734C1024.89 48.05 1023.92 47.7185 1022.92 47.5265C1021.93 47.3521 1020.93 47.4044 1019.96 47.6661C1018.98 47.9453 1018.04 48.4687 1017.13 49.2364C1016.22 50.0041 1015.39 51.1032 1014.62 52.499C1013.26 54.9766 1012.79 57.1924 1013.19 59.129C1013.59 61.0657 1014.86 62.6185 1016.97 63.77C1018.3 64.5028 1019.4 64.9215 1020.31 65.0437L1023.11 59.9142L1019.45 57.9077L1021.11 54.8893L1028.68 59.0418L1023.01 69.3706C1021.91 69.2485 1020.72 68.9868 1019.45 68.6029C1018.18 68.2016 1016.8 67.6084 1015.32 66.7884C1013.8 65.9509 1012.49 64.939 1011.41 63.7526C1010.33 62.5662 1009.54 61.2401 1009.05 59.8095C1008.56 58.3613 1008.39 56.826 1008.56 55.2034C1008.74 53.5633 1009.3 51.8884 1010.24 50.1436C1011.18 48.3989 1012.31 47.0206 1013.61 45.9912C1014.9 44.9618 1016.29 44.2639 1017.76 43.88C1019.22 43.5136 1020.76 43.4613 1022.35 43.723C1023.93 43.9847 1025.5 44.543 1027.06 45.398Z" fill="#333333"/>
<path d="M1038.94 52.5514L1042.51 54.7846L1043.26 70.9409C1043.3 71.8482 1043.3 72.738 1043.28 73.5929C1043.26 74.4478 1043.23 75.1457 1043.19 75.6866L1043.26 75.7215C1044.05 74.1687 1044.9 72.6682 1045.83 71.1852C1046.75 69.7196 1047.68 68.2366 1048.59 66.7884L1052.27 60.9087L1056 63.2466L1043.46 83.2762L1039.88 81.0429L1039.11 65.7241C1039.06 64.6947 1039.06 63.6479 1039.11 62.5836C1039.16 61.5193 1039.22 60.6644 1039.29 60.0363L1039.22 60.0014C1038.34 61.6415 1037.45 63.1943 1036.53 64.6773C1035.62 66.1603 1034.68 67.6608 1033.72 69.1787L1030.11 74.9363L1026.38 72.5984L1038.94 52.5514Z" fill="#333333"/>
</g>
<defs>
<clipPath id="clip0_65_165">
<rect width="1056" height="222" fill="white"/>
</clipPath>
</defs>
</svg>
